<svg width="12996" height="7102" viewBox="0 0 12996 7102" fill="none" xmlns="http://www.w3.org/2000/svg">
<path d="M0 4596.5V4435L5514 3830.5L7631.5 0L5752.5 3857L12991.5 5431.5V7102L5536.5 4039L0 4596.5Z" fill="black"/>
<path d="M1 4468.5L5515 3875.5V3900.5L1 4490.5V4468.5Z" fill="#DFD7CD"/>
<path d="M1 4547L5527.5 4005.5V4025L1 4562.5V4547Z" fill="#DFD7CD"/>
<path d="M5527.5 3900.5L5540 3875.5L12996 5894V6215.5L5527.5 3900.5Z" fill="#DFD7CD"/>
<path d="M5544 4025V4009.5L12996 6640.5V6684.5L5544 4025Z" fill="#DFD7CD"/>
<path d="M5535 4031L1 4590.5V4596L5535 4038.5L12996 7090.5V7062L5535 4031Z" fill="#DFD7CD"/>
<path d="M5520 3836.5L1 4439.5V4434.5L5515 3829.5L7629.5 2.5L5754.5 3857.5L12996 5439V5450L5744 3860.6L7629.5 2.5L5722 3860.6L12996 5492V5511.5L5605.5 3842L5708 3857.5L7629.5 2.5L5627.5 3836.5L5599 3824L7629.5 2.5L5544 3820L5532.5 3824L7629.5 2.5L5520 3836.5Z" fill="#DFD7CD"/>
</svg>
